# xmcd
#
# Track frame offsets:
#	150
#	25296
#	68950
#	91149
#
# Disc length: 1539 seconds
#
# Revision: 0
# Processed by: cddbd v1.5.2PL0 Copyright (c) Steve Scherf et al.
# Submitted via: audiograbber 1.83.01
#
DISCID=2b060104
DTITLE=Grateful Dead - 93-12-18 Oakland Coliseum Arena, Oakland CA
DYEAR=1900
DGENRE=
TTITLE0=I Need A Miracle
TTITLE1=Stella Blue
TTITLE2=One More Saturday Night
TTITLE3=Box Of Rain
EXTD=
EXTT0=
EXTT1=
EXTT2=
EXTT3=
PLAYORDER=
